<svg xmlns="http://www.w3.org/2000/svg" viewBox="0 0 24 24"><path d="M24 7c0 1.7-.6 3.4-1.8 4.7-.2.2-.4.3-.7.3-.2 0-.5-.1-.7-.3-.4-.4-.4-1-.1-1.4.8-.9 1.3-2.1 1.3-3.3 0-2.8-2.2-5-5-5-1.2 0-2.4.5-3.3 1.3-.4.4-1 .3-1.4-.1-.4-.4-.3-1 .1-1.4C13.6.6 15.3 0 17 0c3.9 0 7 3.1 7 7zm-6.3.7C19.2 9.4 20 11.6 20 14c0 5.5-4.5 10-10 10S0 19.5 0 14 4.5 4 10 4c2.4 0 4.6.8 6.3 2.3l1-1c.4-.4 1-.4 1.4 0s.4 1 0 1.4l-1 1zM10 6c-4.4 0-8 3.6-8 8s3.6 8 8 8 8-3.6 8-8-3.6-8-8-8zM8.7 9.3c-.4-.4-1-.4-1.4 0s-.4 1 0 1.4l1 1c.2.2.4.3.7.3s.5-.1.7-.3c.4-.4.4-1 0-1.4l-1-1zm4.6 4l-1 1c-.4.4-.4 1 0 1.4.2.2.5.3.7.3s.5-.1.7-.3l1-1c.4-.4.4-1 0-1.4s-1-.4-1.4 0zm-6 2l-1 1c-.4.4-.4 1 0 1.4.2.2.4.3.7.3s.5-.1.7-.3l1-1c.4-.4.4-1 0-1.4s-1-.4-1.4 0z" fill="#9fa4a8"/></svg>